<svg width="24" height="24" viewBox="0 0 24 24" fill="none" xmlns="http://www.w3.org/2000/svg">
<path fill-rule="evenodd" clip-rule="evenodd" d="M14.2981 5.11033L14.4066 5.25827L21.5519 15.6601C21.8839 16.1434 22.0616 16.7158 22.0616 17.3021C22.0616 18.8465 20.8543 20.109 19.332 20.1972L19.1616 20.2021H4.90028C4.31591 20.2021 3.74517 20.0256 3.26286 19.6956C1.9918 18.8261 1.62995 17.1241 2.40793 15.8193L2.50677 15.6647L9.62278 5.26285C9.78432 5.02671 9.97969 4.81611 10.2023 4.63764L10.3743 4.50991L10.5287 4.41077C11.7799 3.66151 13.3991 3.96202 14.2981 5.11033ZM13 15H11V17H13V15ZM13 8.5H11V13H13V8.5Z" fill="#c91d02"/>
</svg>
