<svg xmlns="http://www.w3.org/2000/svg" width="38" height="58" viewBox="0 0 38 58">
    <g fill="none" fill-rule="evenodd">
        <g>
            <g transform="translate(-574 -328) translate(574 328)">
                <path fill="#000" d="M17.219 56.242v-3.964c0-7.076-3.56-13.572-9.285-17.696C2.78 30.87-.446 24.636.05 17.674.727 8.172 8.576.484 18.052.024 28.976-.51 38 8.225 38 19.077c0 6.524-3.26 12.28-8.236 15.717-5.696 3.936-8.983 10.537-8.983 17.48v3.967h-.022c0 .97-.788 1.758-1.759 1.758-.971 0-1.76-.787-1.76-1.758h-.021z"/>
                <rect width="13" height="13" x="13" y="12" fill="#FFF" rx="2"/>
            </g>
        </g>
    </g>
</svg>
